<svg xmlns="http://www.w3.org/2000/svg" width="54.819" height="81.942" viewBox="0,0,54.81885,81.9421"><path d="M53.78 59.432c-3.23 8.95-12.01 14.39-26.09 16.17-.64.08-1.27.13-1.9.15-.82 1.2-1.89 2.24-3.15 3.05-3.3 2.11-6.39 3.14-9.44 3.14-6.27 0-13.02-4.68-13.02-14.96 0-.7.03-1.61.1-2.87.03-.54.06-.96.07-1.27-.17-.78-.26-1.57-.26-2.37v-4.84c0-.79.08-1.58.24-2.37.01-.67.04-1.42.09-2.24-.24-.88-.42-1.9-.42-3.04 0-.52.04-1.04.11-1.55.38-2.68 1.57-5.37 3.58-7.52-.69-1.93-1.05-3.97-1.05-6.06v-5.1c0-2.07.41-4.65 2.42-11.07.84-2.76 1.11-3.62 1.48-4.42 1.97-4.42 4.94-6.63 7.1-7.72 3.53-1.76 7.32-2.66 11.26-2.66 1.82 0 3.56.19 5.22.55.74-.5 1.53-.92 2.37-1.27 1.07-.46 2.21-.78 3.47-.98 3.15-.54 6.48.13 9.38 1.89 3.05 1.86 6.55 5.72 6.12 13.66-.07 1.4-.19 3.27-.37 5.71l-.02.18c-.16 1.77-.39 4.41-.7 7.9.08 1.35.05 2.86-.07 4.64-.05.68-.16 1.36-.34 2.02l-.12.42c1.35 1.73 2.27 3.46 2.9 4.96.59 1.19 1.09 2.56 1.53 4.23.17.63.28 1.27.33 1.92.45 5.61.22 8.92-.82 11.72zm-26.897-17.094c3.176.273 11.061-.015 11.805 7.881 1.564 7.228-3.552 8.675-6.906 9.523-4.401 1.113-5.535 2.581-9.691-.79-2.332-1.891-3.85-5.749-4.518-8.04-.597-2.047.447-5.657-3.582-5.537-1.888.056-3.469 1.579-2.89 3.863.198.779.106 4.503.127 8.834.017 3.298-.252 7.022.075 9.632.342 2.731 1.648 3.737 2.208 3.57.937-.28 2.828-.925 3.293-2.766.836-3.305-.369-8.161-.369-8.161s3.598 3.302 7.077 4.187c4.203 1.069 5.958-.787 9.461-1.205 3.868-1.35 11.996-3.619 10.865-12.598-1.003-7.96-5.051-9.842-8.817-11.371-5.33-2.164-10.014-.78-13.273-2.68-1.917-1.117-2.991-3.855-2.988-5.443.004-2.379.66-5.781 1.403-8.637.673-2.591 1.533-4.863 3.178-5.36 4.809-1.453 6.497 2.624 7.128 3.974 2.227 4.759 2.759 5.305 3.238 7.261.57 2.643-1.031 6.088 2.494 6.432 3.726.363 3.252-1.618 3.353-2.999.1-1.38-.628-1.803-.248-3.88 1.006-5.513.916-13.029.944-14.939.03-2.061-1.911-2.077-2.585-2.082-.881-.008-1.423.314-1.914 2.18-.427 1.621.169 5.619-.619 5.61-1.247-.015-2.506-6.602-11.742-5.816-5.99.51-6.833 2.825-7.872 7.214-.65 2.745-1.48 5.343-1.825 6.426-.101.316-.05 1.698-.055 3.608-.007 2.593.175 6.063 2.443 8.259 3.099 3.002 7.666 3.583 10.805 3.852z" fill="#fff" style="mix-blend-mode:normal"/></svg>